<?xml version="1.0" encoding="UTF-8"?>
<svg version="1.1" xmlns="http://www.w3.org/2000/svg" width="191" height="156">
<path d="M0 0 C16.46668848 12.19894582 28.71305487 37.38798298 32.04248047 57.2902832 C34.36442949 74.69662297 31.69637743 90.43869293 20.890625 104.64453125 C13.36189041 112.89476957 2.77486042 117.53171422 -8.296875 118.26171875 C-20.44450893 118.50226596 -30.98409816 115.04478054 -40.3359375 107.1953125 C-50.55427813 97.11945869 -54.49307468 83.35835817 -54.609375 69.38671875 C-54.65050762 45.72403866 -43.69541624 22.35523195 -27.46484375 5.3203125 C-19.05332772 -2.66683876 -10.89691029 -6.99463836 0 0 Z M-26.296875 14.26171875 C-32.43915557 18.89976734 -36.95747809 24.26436404 -40.296875 31.26171875 C-39.966875 32.25171875 -39.636875 33.24171875 -39.296875 34.26171875 C-38.78898437 33.97296875 -38.28109375 33.68421875 -37.7578125 33.38671875 C-33.41879375 31.04657381 -30.35752317 29.75565393 -25.296875 30.26171875 C-25.87695312 30.59042969 -26.45703125 30.91914062 -27.0546875 31.2578125 C-33.2186957 35.01114423 -36.75109251 39.00445553 -40.296875 45.26171875 C-39.966875 45.92171875 -39.636875 46.58171875 -39.296875 47.26171875 C-38.51376953 46.57335937 -38.51376953 46.57335937 -37.71484375 45.87109375 C-31.94219253 41.05886612 -26.45492016 38.4443358 -19.296875 36.26171875 C-18.306875 35.93171875 -17.316875 35.60171875 -16.296875 35.26171875 C-12.98648748 28.11825094 -13.90698104 21.43140062 -16.296875 14.26171875 C-20.28358563 15.62859097 -23.18182133 17.41366968 -26.296875 20.26171875 C-26.296875 20.92171875 -26.296875 21.58171875 -26.296875 22.26171875 C-26.956875 22.26171875 -27.616875 22.26171875 -28.296875 22.26171875 C-27.78125 21.31296875 -27.265625 20.36421875 -26.734375 19.38671875 C-26.26 18.35546875 -25.785625 17.32421875 -25.296875 16.26171875 C-25.626875 15.60171875 -25.956875 14.94171875 -26.296875 14.26171875 Z M-21.296875 62.26171875 C-21.956875 62.92171875 -22.616875 63.58171875 -23.296875 64.26171875 C-19.996875 64.26171875 -16.696875 64.26171875 -13.296875 64.26171875 C-17.1478038 61.96357635 -17.1478038 61.96357635 -21.296875 62.26171875 Z M-7.296875 64.26171875 C-4.326875 64.26171875 -1.356875 64.26171875 1.703125 64.26171875 C1.043125 63.60171875 0.383125 62.94171875 -0.296875 62.26171875 C-3.5950174 62.03811195 -3.5950174 62.03811195 -7.296875 64.26171875 Z M-31.296875 80.26171875 C-30.58984277 85.09716908 -28.94156116 86.99084655 -25.296875 90.26171875 C-25.626875 87.95171875 -25.956875 85.64171875 -26.296875 83.26171875 C-25.78125 84.00421875 -25.265625 84.74671875 -24.734375 85.51171875 C-21.75877506 88.86880586 -19.33356379 90.31545808 -15.296875 92.26171875 C-13.976875 92.26171875 -12.656875 92.26171875 -11.296875 92.26171875 C-11.92188895 90.57898889 -12.59864883 88.91541232 -13.296875 87.26171875 C-13.6578125 86.40578125 -14.01875 85.54984375 -14.390625 84.66796875 C-16.18369931 81.90766316 -16.18369931 81.90766316 -19.87109375 81.3359375 C-21.23981091 81.18385782 -22.61135183 81.05562484 -23.984375 80.94921875 C-24.68626953 80.87638672 -25.38816406 80.80355469 -26.11132812 80.72851562 C-27.83786767 80.55233812 -29.56723362 80.40425992 -31.296875 80.26171875 Z M-5.296875 82.26171875 C-7.85101107 85.32871316 -9.15346217 88.45969571 -10.296875 92.26171875 C-4.85166903 91.82610227 -1.5808269 90.66940776 2.703125 87.26171875 C4.53613409 85.15596232 4.53613409 85.15596232 5.703125 83.26171875 C5.373125 85.57171875 5.043125 87.88171875 4.703125 90.26171875 C8.23898514 87.08851093 10.28890531 85.0942818 10.703125 80.26171875 C5.19165017 80.26171875 -0.06219719 80.40108233 -5.296875 82.26171875 Z M-13.296875 82.26171875 C-12.306875 83.25171875 -11.316875 84.24171875 -10.296875 85.26171875 C-9.636875 84.93171875 -8.976875 84.60171875 -8.296875 84.26171875 C-8.296875 83.60171875 -8.296875 82.94171875 -8.296875 82.26171875 C-9.946875 82.26171875 -11.596875 82.26171875 -13.296875 82.26171875 Z M-24.296875 91.26171875 C-22.14466596 96.17484243 -18.75309737 99.34864052 -14.296875 102.26171875 C-11.34130117 103.27734064 -9.25178399 103.27888935 -6.296875 102.26171875 C-3.23828255 100.27677605 -0.58806827 98.10742954 1.703125 95.26171875 C1.703125 94.27171875 1.703125 93.28171875 1.703125 92.26171875 C1.06375 92.73609375 0.424375 93.21046875 -0.234375 93.69921875 C-5.47631907 96.37368001 -10.31144375 96.658805 -16.046875 95.51171875 C-19.05919644 94.35313358 -21.61634792 93.0487368 -24.296875 91.26171875 Z " fill="#251E1F" transform="translate(96.296875,33.73828125)"/>
<path d="M0 0 C0.9909668 0.21329956 0.9909668 0.21329956 2.00195312 0.4309082 C8.91516428 1.81731553 15.46104563 2.277743 22.5 2.1875 C23.45519531 2.18685547 24.41039063 2.18621094 25.39453125 2.18554688 C31.97347834 2.14548563 38.45893532 1.69319332 45 1 C45 1.99 45 2.98 45 4 C33.47835991 6.29612756 33.47835991 6.29612756 28 6 C27.566875 7.11375 27.566875 7.11375 27.125 8.25 C26.17697356 10.56739797 25.15154089 12.77917115 24 15 C30.96792981 14.33638764 35.32694033 11.0325258 40 6 C39.67 8.31 39.34 10.62 39 13 C40.32 10.69 41.64 8.38 43 6 C43.66 6 44.32 6 45 6 C43.6034836 15.18169405 36.34612397 22.59670375 30 29 C26.19047564 30.90476218 22.13140763 30.71084514 18 30 C10.03177936 25.65501012 2.76827916 15.51245842 0 7 C-0.07646165 4.6679198 -0.09143299 2.33154122 0 0 Z M2 4 C2.70703223 8.83545033 4.35531384 10.7291278 8 14 C7.67 11.69 7.34 9.38 7 7 C7.515625 7.7425 8.03125 8.485 8.5625 9.25 C11.53809994 12.60708711 13.96331121 14.05373933 18 16 C19.32 16 20.64 16 22 16 C21.37498605 14.31727014 20.69822617 12.65369357 20 11 C19.6390625 10.1440625 19.278125 9.288125 18.90625 8.40625 C17.11317569 5.64594441 17.11317569 5.64594441 13.42578125 5.07421875 C12.05706409 4.92213907 10.68552317 4.79390609 9.3125 4.6875 C8.61060547 4.61466797 7.90871094 4.54183594 7.18554688 4.46679688 C5.45900733 4.29061937 3.72964138 4.14254117 2 4 Z M20 6 C20.99 6.99 21.98 7.98 23 9 C23.66 8.67 24.32 8.34 25 8 C25 7.34 25 6.68 25 6 C23.35 6 21.7 6 20 6 Z M9 15 C11.15220904 19.91312368 14.54377763 23.08692177 19 26 C21.95557383 27.01562189 24.04509101 27.0171706 27 26 C30.05859245 24.0150573 32.70880673 21.84571079 35 19 C35 18.01 35 17.02 35 16 C34.360625 16.474375 33.72125 16.94875 33.0625 17.4375 C27.82055593 20.11196126 22.98543125 20.39708625 17.25 19.25 C14.23767856 18.09141483 11.68052708 16.78701805 9 15 Z " fill="#E23B22" transform="translate(63,110)"/>
<path d="M0 0 C0.886875 0.680625 1.77375 1.36125 2.6875 2.0625 C3.6775 2.76375 4.6675 3.465 5.6875 4.1875 C11.62790548 9.2524773 14.96310194 16.59809172 16.6875 24.0625 C16.953125 27.81640625 16.953125 27.81640625 16.9375 31.625 C16.94523437 33.51412109 16.94523437 33.51412109 16.953125 35.44140625 C16.69319779 38.98482565 15.96817725 41.76424788 14.6875 45.0625 C13.58328953 41.74986859 13.68819885 39.47628873 13.8125 36 C13.8482856 25.24046171 10.90342314 17.15943701 3.6875 9.0625 C-4.73343738 1.76332983 -13.73594487 -0.61304991 -24.7421875 -0.3515625 C-33.29555396 0.64040341 -41.67925648 4.42074741 -47.3125 11.0625 C-52.8155352 18.88932268 -55.52456904 25.92288254 -55.9375 35.4375 C-55.97617187 36.17355469 -56.01484375 36.90960938 -56.0546875 37.66796875 C-56.14807998 39.46577406 -56.2313371 41.26410108 -56.3125 43.0625 C-58.69417501 39.36188942 -58.65883661 35.69941959 -58.625 31.4375 C-58.62081055 30.7261792 -58.61662109 30.0148584 -58.61230469 29.28198242 C-58.43839512 21.12395841 -57.06826959 14.15684427 -51.3125 8.0625 C-50.61125 7.093125 -49.91 6.12375 -49.1875 5.125 C-36.95658736 -9.48414565 -15.23481749 -8.91093099 0 0 Z " fill="#E23E22" transform="translate(106.3125,74.9375)"/>
<path d="M0 0 C1.1240625 0.00644531 2.248125 0.01289062 3.40625 0.01953125 C6.5 0.1875 6.5 0.1875 8.78125 0.76171875 C10.59778247 1.40909415 10.59778247 1.40909415 12.5 0.1875 C24.81862785 -0.85039544 24.81862785 -0.85039544 29.3125 2.0625 C30.034375 2.76375 30.75625 3.465 31.5 4.1875 C31.5 4.8475 31.5 5.5075 31.5 6.1875 C27.19022814 7.62409062 23.17568127 7.56833665 18.75 6.5625 C16.22357379 5.87782666 16.22357379 5.87782666 13.5 8.1875 C11.5625 8.453125 11.5625 8.453125 9.5 8.4375 C8.819375 8.44265625 8.13875 8.4478125 7.4375 8.453125 C5.5 8.1875 5.5 8.1875 2.5 6.1875 C-0.38180042 6.20189302 -0.38180042 6.20189302 -3.5 6.625 C-9.19754768 7.28831744 -9.19754768 7.28831744 -12.5 6.1875 C-11.57552866 3.87632166 -10.921789 2.47033514 -8.828125 1.06640625 C-5.7893298 -0.08078993 -3.24159764 -0.04089171 0 0 Z " fill="#E13B20" transform="translate(76.5,90.8125)"/>
<path d="M0 0 C0.44730469 0.39832031 0.89460938 0.79664062 1.35546875 1.20703125 C5.92799917 5.21408882 9.96811563 8.61584127 16 10 C15.6390625 9.44570312 15.278125 8.89140625 14.90625 8.3203125 C14.4421875 7.59585938 13.978125 6.87140625 13.5 6.125 C13.0359375 5.40570313 12.571875 4.68640625 12.09375 3.9453125 C11 2 11 2 11 0 C12.3303125 0.5259375 12.3303125 0.5259375 13.6875 1.0625 C17.06203126 2.01755602 18.69686152 1.97151132 22 1 C20.68 3.64 19.36 6.28 18 9 C24.96792981 8.33638764 29.32694033 5.0325258 34 0 C33.68619941 4.3932082 32.65633082 7.3788629 29.640625 10.671875 C25.27834785 14.20324221 19.9590259 15.31044417 14.4375 15.0625 C9.36616974 14.26176364 5.55062848 11.63577545 2 8 C0.0729963 4.92787589 0 3.82798486 0 0 Z " fill="#4D251E" transform="translate(69,116)"/>
<path d="M0 0 C4.71890222 5.36238889 5.2783633 11.64894659 5.25 18.5625 C5.25515625 19.82191406 5.2603125 21.08132812 5.265625 22.37890625 C5.00569779 25.92232565 4.28067725 28.70174788 3 32 C1.89578953 28.68736859 2.00069885 26.41378873 2.125 22.9375 C2.19411559 15.19655432 0.56609221 8.83759419 -3 2 C-2.34 2 -1.68 2 -1 2 C-0.67 1.34 -0.34 0.68 0 0 Z " fill="#CE3B24" transform="translate(118,88)"/>
<path d="M0 0 C0.99 0.33 1.98 0.66 3 1 C2.34 1 1.68 1 1 1 C3.3996513 7.53589235 6.72009613 12.51634068 11.1953125 17.8359375 C13 20 13 20 15 23 C14.34 23 13.68 23 13 23 C12.67 23.66 12.34 24.32 12 25 C-0.63386865 10.35318792 -0.63386865 10.35318792 0 0 Z " fill="#DE3E22" transform="translate(63,110)"/>
<path d="M0 0 C2.16874252 0.50603992 3.99967627 0.99983813 6 2 C7.70363822 2.22622081 9.41328701 2.40888473 11.125 2.5625 C12.03507812 2.64628906 12.94515625 2.73007813 13.8828125 2.81640625 C14.58148438 2.87699219 15.28015625 2.93757812 16 3 C15.67 4.32 15.34 5.64 15 7 C6.07559008 7.62384225 6.07559008 7.62384225 1.875 5.1875 C0 3 0 3 0 0 Z " fill="#EA4521" transform="translate(76,133)"/>
<path d="M0 0 C0.44730469 0.39832031 0.89460938 0.79664062 1.35546875 1.20703125 C6.98605734 6.14129971 11.63177502 9.121825 19 11 C19 11.33 19 11.66 19 12 C13.48093274 12.28063054 10.64307627 12.22435852 6 9 C5.278125 8.855625 4.55625 8.71125 3.8125 8.5625 C2 8 2 8 0.75 6.1875 C0 4 0 4 0 0 Z " fill="#33241E" transform="translate(69,116)"/>
<path d="M0 0 C0.99 0 1.98 0 3 0 C2.7834375 1.485 2.7834375 1.485 2.5625 3 C1.67932544 9.96446221 1.39957191 16.99473922 1 24 C-1.4970882 20.20995308 -1.26271355 16.37030295 -1.1875 12 C-1.18685547 11.2884375 -1.18621094 10.576875 -1.18554688 9.84375 C-1.1568988 6.43144624 -1.06157986 3.26117332 0 0 Z " fill="#CE3C23" transform="translate(49,94)"/>
<path d="M0 0 C4.73684211 1.84210526 4.73684211 1.84210526 6.875 3.125 C12.16008583 5.30121181 18.48808848 3.77360162 24 3 C20.79310006 6.20689994 17.65730794 6.65374903 13.3125 7.00390625 C8.2037371 6.99527658 3.70555784 5.55733553 0 2 C0 1.34 0 0.68 0 0 Z " fill="#CA2D21" transform="translate(73,124)"/>
<path d="M0 0 C1.3303125 0.5259375 1.3303125 0.5259375 2.6875 1.0625 C6.06203126 2.01755602 7.69686152 1.97151132 11 1 C9.68 3.64 8.36 6.28 7 9 C2.97449681 7.6581656 2.11714364 5.5772427 0 2 C0 1.34 0 0.68 0 0 Z " fill="#43161E" transform="translate(80,116)"/>
<path d="M0 0 C0.66 0 1.32 0 2 0 C1.43452454 3.95832823 0.42494621 6.79560679 -2 10 C-4.6875 11.3125 -4.6875 11.3125 -7 12 C-5.880462 9.48103951 -4.68018448 7.60265345 -2.9375 5.4375 C-0.83615651 3.07973981 -0.83615651 3.07973981 0 0 Z " fill="#CD3822" transform="translate(106,116)"/>
<path d="M0 0 C0.99 0.33 1.98 0.66 3 1 C2.34 1 1.68 1 1 1 C1.31195313 1.60328125 1.62390625 2.2065625 1.9453125 2.828125 C2.33460937 3.62734375 2.72390625 4.4265625 3.125 5.25 C3.51945312 6.03890625 3.91390625 6.8278125 4.3203125 7.640625 C5 10 5 10 4.1171875 12.296875 C3.74851562 12.85890625 3.37984375 13.4209375 3 14 C0.56574762 9.03006806 -0.34615998 5.65394631 0 0 Z " fill="#AB351F" transform="translate(63,110)"/>
<path d="M0 0 C0.75 1.625 0.75 1.625 1 4 C-0.625 7.1875 -0.625 7.1875 -3 10 C-5.75 10.875 -5.75 10.875 -8 11 C-7.21625 10.278125 -6.4325 9.55625 -5.625 8.8125 C-3.13744038 6.14725755 -2.12997851 4.38993552 -1 1 C-0.67 0.67 -0.34 0.34 0 0 Z " fill="#7D1A1E" transform="translate(102,116)"/>
<path d="M0 0 C0.598125 0.20625 1.19625 0.4125 1.8125 0.625 C0.52284824 2.00062854 -0.81439293 3.33266393 -2.1875 4.625 C-2.8475 4.625 -3.5075 4.625 -4.1875 4.625 C-4.1875 5.285 -4.1875 5.945 -4.1875 6.625 C-4.8475 6.625 -5.5075 6.625 -6.1875 6.625 C-5.875 4.25 -5.875 4.25 -5.1875 1.625 C-2.1875 -0.375 -2.1875 -0.375 0 0 Z " fill="#110E1A" transform="translate(74.1875,49.375)"/>
<path d="M0 0 C1.98 0.495 1.98 0.495 4 1 C3.43628586 4.26954202 2.50037734 5.82575883 0 8 C-1.125 2.25 -1.125 2.25 0 0 Z " fill="#2F271E" transform="translate(52,66)"/>
<path d="M0 0 C2.16874252 0.50603992 3.99967627 0.99983813 6 2 C6 2.66 6 3.32 6 4 C8.97 4 11.94 4 15 4 C15 4.33 15 4.66 15 5 C6.22421525 5.76681614 6.22421525 5.76681614 3.22265625 3.88671875 C1.875 2.5 1.875 2.5 0 0 Z " fill="#D93D24" transform="translate(76,135)"/>
<path d="M0 0 C2.5625 2.25 2.5625 2.25 5 5 C4.8125 7.3125 4.8125 7.3125 4 9 C1.47740939 7.02579865 1.0070192 6.03254358 0.3125 2.8125 C0.209375 1.884375 0.10625 0.95625 0 0 Z " fill="#711C1E" transform="translate(69,116)"/>
<path d="M0 0 C0.66 0.33 1.32 0.66 2 1 C-1.465 3.97 -1.465 3.97 -5 7 C-5.99 6.34 -6.98 5.68 -8 5 C-6.71475739 4.13619741 -5.42157581 3.28419631 -4.125 2.4375 C-3.04605469 1.72400391 -3.04605469 1.72400391 -1.9453125 0.99609375 C-1.30335937 0.66738281 -0.66140625 0.33867188 0 0 Z " fill="#391F1D" transform="translate(99,120)"/>
<path d="M0 0 C0.99 0.33 1.98 0.66 3 1 C1.68 3.31 0.36 5.62 -1 8 C-1.99 7.67 -2.98 7.34 -4 7 C-3 5 -3 5 -1 3 C-1.33 2.34 -1.66 1.68 -2 1 C-1.34 0.67 -0.68 0.34 0 0 Z " fill="#590B1D" transform="translate(88,117)"/>
</svg>
